<svg id="Layer_1" data-name="Layer 1" xmlns="http://www.w3.org/2000/svg" viewBox="0 0 206.58 48.58"><defs><style>.cls-1{isolation:isolate;}.cls-2{fill:#f5f5f5;}</style></defs><title>fh-final</title><g id="Layer_2" data-name="Layer 2"><g id="Layer_1-2" data-name="Layer 1-2"><g class="cls-1"><g class="cls-1"><path class="cls-2" d="M22.64,40.75q0-2.26-.1-3.86a10.17,10.17,0,0,0-.46-2.62,3.06,3.06,0,0,0-1-1.51,2.87,2.87,0,0,0-1.74-.48h-.68V29.2h.68a2.87,2.87,0,0,0,1.77-.5,3.08,3.08,0,0,0,1-1.54,10.56,10.56,0,0,0,.44-2.66q.1-1.61.1-3.85V16.95a32.93,32.93,0,0,1,.3-4.78,11.1,11.1,0,0,1,.92-3.24,4.19,4.19,0,0,1,1.61-1.84,4.55,4.55,0,0,1,2.33-.57h1.74V9.74H28a6.47,6.47,0,0,0-1.41.14,1.62,1.62,0,0,0-1,.74A4.9,4.9,0,0,0,25,12.45a21.87,21.87,0,0,0-.21,3.44v4.77q0,1.69-.12,3.32a17.88,17.88,0,0,1-.46,3,8.38,8.38,0,0,1-.95,2.35,3.42,3.42,0,0,1-1.6,1.42,3.66,3.66,0,0,1,1.58,1.43,8.35,8.35,0,0,1,1,2.34,17.32,17.32,0,0,1,.47,3q.12,1.63.12,3.32V45.7A21.86,21.86,0,0,0,25,49.14,4.89,4.89,0,0,0,25.62,51a1.62,1.62,0,0,0,1,.74,6.53,6.53,0,0,0,1.41.14h1.49v3.23H27.79a4.55,4.55,0,0,1-2.33-.57,4.19,4.19,0,0,1-1.61-1.84,11.09,11.09,0,0,1-.92-3.24,32.92,32.92,0,0,1-.3-4.78Z" transform="translate(-18.65 -6.51)"/><path class="cls-2" d="M47.52,13.51a14.59,14.59,0,0,0-4.51.62A7.32,7.32,0,0,0,39.9,16a8,8,0,0,0-1.81,3.32,17.36,17.36,0,0,0-.59,4.83V28.8H57.87v3.53H37.49v19.1H35.32V23.55A23.09,23.09,0,0,1,36,17.82,10.9,10.9,0,0,1,38,13.55,9.14,9.14,0,0,1,41.7,10.9,14.11,14.11,0,0,1,47.09,10H58.21v3.53Z" transform="translate(-18.65 -6.51)"/></g><g class="cls-1"><path class="cls-2" d="M71.32,30.48a3.78,3.78,0,0,0-1.24-.17,4.45,4.45,0,0,0-2,.45A6.64,6.64,0,0,0,66.4,32a10.71,10.71,0,0,0-1.47,1.78,17.66,17.66,0,0,0-1.22,2.16V51.43H62.54V29.07h1.17v4.56a16.29,16.29,0,0,1,1.36-2.07,10.39,10.39,0,0,1,1.55-1.62,7,7,0,0,1,1.71-1.06,4.66,4.66,0,0,1,1.85-.38l.59,0,.48.07.42.09.4.11v2A5.62,5.62,0,0,0,71.32,30.48Z" transform="translate(-18.65 -6.51)"/><path class="cls-2" d="M89.67,40.27a19,19,0,0,1-.63,5.2,10.72,10.72,0,0,1-1.72,3.61,6.86,6.86,0,0,1-2.58,2.11,7.59,7.59,0,0,1-3.21.68,7.67,7.67,0,0,1-3.23-.68,6.92,6.92,0,0,1-2.6-2.11A10.62,10.62,0,0,1,74,45.47a19,19,0,0,1-.63-5.2,20.91,20.91,0,0,1,.29-3.64,14.63,14.63,0,0,1,.81-2.93,9.12,9.12,0,0,1,1.27-2.24,7.57,7.57,0,0,1,1.66-1.57,6.73,6.73,0,0,1,2-.93,7.93,7.93,0,0,1,2.2-.3,7.59,7.59,0,0,1,3.21.68,6.86,6.86,0,0,1,2.58,2.11A10.72,10.72,0,0,1,89,35.07,19,19,0,0,1,89.67,40.27Zm-1.2,0a17.79,17.79,0,0,0-.45-4.2A9,9,0,0,0,86.71,33a5.73,5.73,0,0,0-2.17-1.89,7.36,7.36,0,0,0-6,0A5.85,5.85,0,0,0,76.32,33,9,9,0,0,0,75,36.09a17.54,17.54,0,0,0-.45,4.17,17.6,17.6,0,0,0,.45,4.2,9,9,0,0,0,1.33,3.07,5.78,5.78,0,0,0,2.19,1.89,7.4,7.4,0,0,0,6,0,5.73,5.73,0,0,0,2.17-1.89A9,9,0,0,0,88,44.47,17.79,17.79,0,0,0,88.47,40.27Z" transform="translate(-18.65 -6.51)"/><path class="cls-2" d="M105.55,51.43V36.67a13.49,13.49,0,0,0-.29-3.05,5.09,5.09,0,0,0-.81-1.9,2.81,2.81,0,0,0-1.29-1,4.94,4.94,0,0,0-1.7-.28,5.28,5.28,0,0,0-2.15.46,10,10,0,0,0-2,1.17,12.7,12.7,0,0,0-1.72,1.57,15.2,15.2,0,0,0-1.33,1.66v16.1H93.1V29.07h1.17V33q.65-.71,1.45-1.5A14,14,0,0,1,97.42,30a9.33,9.33,0,0,1,2-1.08,5.75,5.75,0,0,1,2.19-.42,4.36,4.36,0,0,1,3.88,2.09,7.49,7.49,0,0,1,1,2.43,14.61,14.61,0,0,1,.32,3.18v15.2Z" transform="translate(-18.65 -6.51)"/><path class="cls-2" d="M116.21,30.92V51.43H115V30.92H109.2V29.07h12.86v1.86Z" transform="translate(-18.65 -6.51)"/></g><g class="cls-1"><path class="cls-2" d="M150,51.43V31.28H128.6V51.43h-2.17V10h2.17V27.84H150V10h2.17V51.43Z" transform="translate(-18.65 -6.51)"/></g><g class="cls-1"><path class="cls-2" d="M181.76,51.43V46.85A18.27,18.27,0,0,1,178.92,49a22.05,22.05,0,0,1-3.35,1.72A20.75,20.75,0,0,1,172,51.86a17.66,17.66,0,0,1-3.64.39,11.37,11.37,0,0,1-4.17-.72A8.13,8.13,0,0,1,161,49.37a9.81,9.81,0,0,1-2-3.56,15.91,15.91,0,0,1-.69-4.93,13.76,13.76,0,0,1,.81-4.9,11.08,11.08,0,0,1,2.3-3.71,13.45,13.45,0,0,1,3.6-2.69,26.23,26.23,0,0,1,4.71-1.87,46.45,46.45,0,0,1,5.63-1.27q3-.5,6.38-.83V22.44a12.63,12.63,0,0,0-.42-3.41,8.82,8.82,0,0,0-1.16-2.58,7.43,7.43,0,0,0-1.75-1.84,9.36,9.36,0,0,0-2.18-1.19,11.67,11.67,0,0,0-2.46-.65,17.26,17.26,0,0,0-2.59-.2,15.65,15.65,0,0,0-3.19.3,14.61,14.61,0,0,0-2.69.83,18.58,18.58,0,0,0-2.39,1.22q-1.15.69-2.31,1.48V12a39.79,39.79,0,0,1,5.15-1.95,19.89,19.89,0,0,1,5.8-.83,15,15,0,0,1,4.86.77,9.93,9.93,0,0,1,3.92,2.46A11.71,11.71,0,0,1,183,16.81a19.44,19.44,0,0,1,1,6.5V51.43Zm0-22.48a67.85,67.85,0,0,0-9.7,1.54,26.21,26.21,0,0,0-6.57,2.44,10.1,10.1,0,0,0-3.74,3.38,8.17,8.17,0,0,0-1.19,4.38,9.93,9.93,0,0,0,.58,3.53,6.83,6.83,0,0,0,1.68,2.58,7.07,7.07,0,0,0,2.66,1.57,10.91,10.91,0,0,0,3.51.53,13.08,13.08,0,0,0,2.37-.23,17.88,17.88,0,0,0,2.44-.63,21.63,21.63,0,0,0,2.4-1,20,20,0,0,0,2.22-1.22,15.52,15.52,0,0,0,1.9-1.42,10.3,10.3,0,0,0,1.45-1.54Z" transform="translate(-18.65 -6.51)"/></g><g class="cls-1"><path class="cls-2" d="M201.06,13.42v38H198.9v-38H188.06V10H211.9v3.44Z" transform="translate(-18.65 -6.51)"/><path class="cls-2" d="M221.26,44.64a33.07,33.07,0,0,1-.29,4.78,11.08,11.08,0,0,1-.92,3.24,4.19,4.19,0,0,1-1.6,1.84,4.55,4.55,0,0,1-2.33.57h-1.75V51.86h1.49a6.53,6.53,0,0,0,1.41-.14,1.65,1.65,0,0,0,1-.74,4.79,4.79,0,0,0,.62-1.84,21.94,21.94,0,0,0,.21-3.44V40.81q0-1.69.12-3.32a17.27,17.27,0,0,1,.47-3,8.35,8.35,0,0,1,1-2.34,3.66,3.66,0,0,1,1.58-1.43,3.47,3.47,0,0,1-1.61-1.42,8.21,8.21,0,0,1-1-2.35,17.32,17.32,0,0,1-.45-3q-.11-1.63-.11-3.32V15.89a21.94,21.94,0,0,0-.21-3.44,4.79,4.79,0,0,0-.62-1.84,1.65,1.65,0,0,0-1-.74,6.47,6.47,0,0,0-1.41-.14h-1.49V6.51h1.75a4.55,4.55,0,0,1,2.33.57A4.19,4.19,0,0,1,220,8.92a11.08,11.08,0,0,1,.92,3.24,33.08,33.08,0,0,1,.29,4.78v3.71q0,2.23.1,3.85a10.83,10.83,0,0,0,.43,2.66,3.06,3.06,0,0,0,1,1.54,2.86,2.86,0,0,0,1.78.5h.68v3.08h-.68a2.86,2.86,0,0,0-1.74.48,3,3,0,0,0-1,1.51,10.47,10.47,0,0,0-.45,2.63q-.1,1.6-.1,3.86Z" transform="translate(-18.65 -6.51)"/></g></g></g></g></svg>